<?xml version="1.0" encoding="utf-8"?>
<!-- Generator: Adobe Illustrator 27.5.0, SVG Export Plug-In . SVG Version: 6.00 Build 0)  -->
<svg version="1.1" xmlns="http://www.w3.org/2000/svg" xmlns:xlink="http://www.w3.org/1999/xlink" x="0px" y="0px"
	 viewBox="0 0 500 500" style="enable-background:new 0 0 500 500;" xml:space="preserve">
<g id="BACKGROUND">
	<rect style="fill:#FFFFFF;" width="500" height="500"/>
</g>
<g id="OBJECTS">
	<g>
		<rect x="114.783" y="167.922" style="fill:#FCE8CF;" width="50.991" height="155.587"/>
		<path style="fill:#F37F6F;" d="M236.096,254.215c0,30.328-24.586,54.914-54.914,54.914c-30.328,0-54.913-24.586-54.913-54.914
			c0-30.328,24.585-54.914,54.913-54.914C211.51,199.301,236.096,223.887,236.096,254.215z"/>
		<path style="fill:none;stroke:#FCE8CF;stroke-miterlimit:10;" d="M218.348,254.215c0,20.525-16.64,37.164-37.166,37.164
			c-20.525,0-37.165-16.639-37.165-37.164c0-20.525,16.64-37.165,37.165-37.165C201.708,217.049,218.348,233.689,218.348,254.215z"
			/>
		<path style="fill:none;stroke:#FCE8CF;stroke-miterlimit:10;" d="M226.098,254.215c0,24.807-20.109,44.914-44.916,44.914
			c-24.806,0-44.915-20.107-44.915-44.914c0-24.806,20.109-44.915,44.915-44.915C205.988,209.299,226.098,229.409,226.098,254.215z"
			/>
		<g>
			<defs>
				<path id="SVGID_1_" d="M236.096,254.215c0,30.328-24.586,54.914-54.914,54.914c-30.328,0-54.913-24.586-54.913-54.914
					c0-30.328,24.585-54.914,54.913-54.914C211.51,199.301,236.096,223.887,236.096,254.215z"/>
			</defs>
			<clipPath id="SVGID_00000000211432029087349310000014556176565874639773_">
				<use xlink:href="#SVGID_1_"  style="overflow:visible;"/>
			</clipPath>
			<g style="clip-path:url(#SVGID_00000000211432029087349310000014556176565874639773_);">
				<path style="fill:#FCE8CF;" d="M167.386,269.049c24,0,49.5-44.999,77.25-31.749c14.25,28.999-3.5,57.499-3.5,57.499l-58.25,15.5
					L167.386,269.049z"/>
				<path style="fill:none;stroke:#D9A677;stroke-miterlimit:10;" d="M167.386,275.799c24,0,49.5-44.999,77.25-31.749
					c14.25,28.999-3.5,57.499-3.5,57.499l-58.25,15.5L167.386,275.799z"/>
				<path style="fill:none;stroke:#D9A677;stroke-miterlimit:10;" d="M167.386,268.549c24,0,49.5-44.999,77.25-31.749
					c14.25,28.999-3.5,57.499-3.5,57.499l-58.25,15.5L167.386,268.549z"/>
				<path style="fill:none;stroke:#D9A677;stroke-miterlimit:10;" d="M167.386,281.049c24,0,49.5-44.999,77.25-31.749
					c14.25,28.999-3.5,57.499-3.5,57.499l-58.25,15.5L167.386,281.049z"/>
				<path style="fill:none;stroke:#D9A677;stroke-miterlimit:10;" d="M167.386,286.299c24,0,49.5-44.999,77.25-31.75
					c14.25,29-3.5,57.5-3.5,57.5l-58.25,15.5L167.386,286.299z"/>
				<path style="fill:none;stroke:#D9A677;stroke-miterlimit:10;" d="M167.386,291.549c24,0,49.5-44.999,77.25-31.75
					c14.25,29-3.5,57.5-3.5,57.5l-58.25,15.5L167.386,291.549z"/>
				<path style="fill:none;stroke:#D9A677;stroke-miterlimit:10;" d="M167.386,296.799c24,0,49.5-45,77.25-31.75
					c14.25,29-3.5,57.5-3.5,57.5l-58.25,15.5L167.386,296.799z"/>
				<path style="fill:none;stroke:#D9A677;stroke-miterlimit:10;" d="M167.386,302.049c24,0,49.5-45,77.25-31.75
					c14.25,29-3.5,57.5-3.5,57.5l-58.25,15.5L167.386,302.049z"/>
				<path style="fill:none;stroke:#D9A677;stroke-miterlimit:10;" d="M167.386,307.299c24,0,49.5-45,77.25-31.75
					c14.25,29-3.5,57.5-3.5,57.5l-58.25,15.5L167.386,307.299z"/>
			</g>
		</g>
		<g>
			<defs>
				<path id="SVGID_00000137121649339472999660000000426859106015629996_" d="M236.096,254.215
					c0,30.328-24.586,54.914-54.914,54.914c-30.328,0-54.913-24.586-54.913-54.914c0-30.328,24.585-54.914,54.913-54.914
					C211.51,199.301,236.096,223.887,236.096,254.215z"/>
			</defs>
			<clipPath id="SVGID_00000082351120650997764410000012513918011178639287_">
				<use xlink:href="#SVGID_00000137121649339472999660000000426859106015629996_"  style="overflow:visible;"/>
			</clipPath>
		</g>
		<path style="fill:#1B2D58;" d="M198.056,181.634l-24.329,86.079c-0.15,0.531-0.703,0.842-1.234,0.691
			c-0.527-0.148-0.836-0.695-0.693-1.225l23.365-86.345c0.217-0.8,1.04-1.273,1.84-1.057c0.8,0.217,1.273,1.04,1.057,1.84
			C198.06,181.621,198.057,181.632,198.056,181.634z"/>
		<path style="fill:#FCE8CF;" d="M123.219,244.233v42.035l0.167,0.531l61.5,1l16.75-15
			C181.782,272.799,164.006,238.436,123.219,244.233z"/>
		<g>
			<defs>
				<path id="SVGID_00000178167593098793739440000002663266638375240622_" d="M236.096,254.215
					c0,30.328-24.586,54.914-54.914,54.914c-30.328,0-54.913-24.586-54.913-54.914c0-30.328,24.585-54.914,54.913-54.914
					C211.51,199.301,236.096,223.887,236.096,254.215z"/>
			</defs>
			<clipPath id="SVGID_00000013153129082863992080000003987094650775826351_">
				<use xlink:href="#SVGID_00000178167593098793739440000002663266638375240622_"  style="overflow:visible;"/>
			</clipPath>
			<g style="clip-path:url(#SVGID_00000013153129082863992080000003987094650775826351_);">
				<path style="fill:none;stroke:#D9A677;stroke-miterlimit:10;" d="M201.636,280.299c-21.75,0-41-41.249-90.75-25.75l12.5,39.75
					l61.5,1L201.636,280.299z"/>
				<path style="fill:none;stroke:#D9A677;stroke-miterlimit:10;" d="M201.636,272.924c-21.75,0-41-41.249-90.75-25.749l12.5,39.749
					l61.5,1L201.636,272.924z"/>
				<path style="fill:none;stroke:#D9A677;stroke-miterlimit:10;" d="M201.636,285.549c-21.75,0-41-41.249-90.75-25.75l12.5,39.75
					l61.5,1L201.636,285.549z"/>
				<path style="fill:none;stroke:#D9A677;stroke-miterlimit:10;" d="M201.636,290.799c-21.75,0-41-41.249-90.75-25.75l12.5,39.75
					l61.5,1L201.636,290.799z"/>
				<path style="fill:none;stroke:#D9A677;stroke-miterlimit:10;" d="M201.636,296.049c-21.75,0-41-41.25-90.75-25.75l12.5,39.75
					l61.5,1L201.636,296.049z"/>
				<path style="fill:none;stroke:#D9A677;stroke-miterlimit:10;" d="M201.636,301.299c-21.75,0-41-41.25-90.75-25.75l12.5,39.75
					l61.5,1L201.636,301.299z"/>
			</g>
		</g>
		<path style="fill:#1B2D58;" d="M129.405,272.52c7.539,21.326,27.868,36.609,51.776,36.609s44.237-15.283,51.776-36.609H129.405z"
			/>
		<rect x="165.886" y="304.383" style="fill:#1B2D58;" width="31.5" height="11.834"/>
		<g>
			<path style="fill:#F37F6F;" d="M123.219,279.045c-1.471,0-2.662-1.191-2.662-2.662c0-1.471,1.191-2.662,2.662-2.662
				c1.471,0,2.663,1.191,2.663,2.662C125.882,277.853,124.689,279.045,123.219,279.045z"/>
			<path style="fill:#F37F6F;" d="M123.219,289.252c-1.471,0-2.662-1.193-2.662-2.664c0-1.469,1.191-2.662,2.662-2.662
				c1.471,0,2.663,1.193,2.663,2.662C125.882,288.059,124.689,289.252,123.219,289.252z"/>
			<path style="fill:#F37F6F;" d="M123.219,299.459c-1.471,0-2.662-1.193-2.662-2.662c0-1.473,1.191-2.664,2.662-2.664
				c1.471,0,2.663,1.191,2.663,2.664C125.882,298.266,124.689,299.459,123.219,299.459z"/>
			<path style="fill:#F37F6F;" d="M123.219,309.664c-1.471,0-2.662-1.191-2.662-2.662c0-1.471,1.191-2.662,2.662-2.662
				c1.471,0,2.663,1.191,2.663,2.662C125.882,308.473,124.689,309.664,123.219,309.664z"/>
			<path style="fill:#F37F6F;" d="M123.219,319.871c-1.471,0-2.662-1.193-2.662-2.662c0-1.471,1.191-2.662,2.662-2.662
				c1.471,0,2.663,1.191,2.663,2.662C125.882,318.678,124.689,319.871,123.219,319.871z"/>
			<path style="fill:#F37F6F;" d="M123.219,330.078c-1.471,0-2.662-1.193-2.662-2.662c0-1.471,1.191-2.664,2.662-2.664
				c1.471,0,2.663,1.193,2.663,2.664C125.882,328.885,124.689,330.078,123.219,330.078z"/>
		</g>
		<g>
			<path style="fill:#1B2D58;" d="M152.262,198.049c0-1.103,0.895-1.997,1.998-1.997c1.102,0,1.996,0.894,1.996,1.997
				c0,1.103-0.894,1.997-1.996,1.997C153.156,200.046,152.262,199.152,152.262,198.049z"/>
			<path style="fill:#1B2D58;" d="M141.389,198.049c0-1.103,0.895-1.997,1.998-1.997c1.102,0,1.996,0.894,1.996,1.997
				c0,1.103-0.895,1.997-1.996,1.997C142.283,200.046,141.389,199.152,141.389,198.049z"/>
			<path style="fill:#1B2D58;" d="M130.517,198.049c0-1.103,0.895-1.997,1.997-1.997c1.104,0,1.997,0.894,1.997,1.997
				c0,1.103-0.893,1.997-1.997,1.997C131.411,200.046,130.517,199.152,130.517,198.049z"/>
			<path style="fill:#1B2D58;" d="M119.645,198.049c0-1.103,0.895-1.997,1.996-1.997c1.104,0,1.997,0.894,1.997,1.997
				c0,1.103-0.894,1.997-1.997,1.997C120.539,200.046,119.645,199.152,119.645,198.049z"/>
			<path style="fill:#1B2D58;" d="M108.771,198.049c0-1.103,0.895-1.997,1.997-1.997c1.102,0,1.996,0.894,1.996,1.997
				c0,1.103-0.894,1.997-1.996,1.997C109.666,200.046,108.771,199.152,108.771,198.049z"/>
			<path style="fill:#1B2D58;" d="M97.899,198.049c0-1.103,0.894-1.997,1.996-1.997c1.104,0,1.997,0.894,1.997,1.997
				c0,1.103-0.894,1.997-1.997,1.997C98.793,200.046,97.899,199.152,97.899,198.049z"/>
		</g>
		<g>
			<path style="fill:#1B2D58;" d="M152.262,189.382c0-1.103,0.895-1.997,1.998-1.997c1.102,0,1.996,0.894,1.996,1.997
				c0,1.103-0.894,1.997-1.996,1.997C153.156,191.379,152.262,190.485,152.262,189.382z"/>
			<path style="fill:#1B2D58;" d="M141.389,189.382c0-1.103,0.895-1.997,1.998-1.997c1.102,0,1.996,0.894,1.996,1.997
				c0,1.103-0.895,1.997-1.996,1.997C142.283,191.379,141.389,190.485,141.389,189.382z"/>
			<path style="fill:#1B2D58;" d="M130.517,189.382c0-1.103,0.895-1.997,1.997-1.997c1.104,0,1.997,0.894,1.997,1.997
				c0,1.103-0.893,1.997-1.997,1.997C131.411,191.379,130.517,190.485,130.517,189.382z"/>
			<path style="fill:#1B2D58;" d="M119.645,189.382c0-1.103,0.895-1.997,1.996-1.997c1.104,0,1.997,0.894,1.997,1.997
				c0,1.103-0.894,1.997-1.997,1.997C120.539,191.379,119.645,190.485,119.645,189.382z"/>
			<path style="fill:#1B2D58;" d="M108.771,189.382c0-1.103,0.895-1.997,1.997-1.997c1.102,0,1.996,0.894,1.996,1.997
				c0,1.103-0.894,1.997-1.996,1.997C109.666,191.379,108.771,190.485,108.771,189.382z"/>
			<path style="fill:#1B2D58;" d="M97.899,189.382c0-1.103,0.894-1.997,1.996-1.997c1.104,0,1.997,0.894,1.997,1.997
				c0,1.103-0.894,1.997-1.997,1.997C98.793,191.379,97.899,190.485,97.899,189.382z"/>
		</g>
		<path style="fill:#1B2D58;" d="M214.986,190.203l-39.45,80.282c-0.244,0.495-0.843,0.7-1.339,0.456
			c-0.492-0.241-0.696-0.834-0.461-1.328l38.55-80.718c0.358-0.748,1.252-1.064,2-0.707c0.747,0.357,1.065,1.252,0.707,2
			C214.992,190.191,214.987,190.201,214.986,190.203z"/>
		<line style="fill:none;stroke:#1B2D58;stroke-miterlimit:10;" x1="247.72" y1="207.55" x2="247.72" y2="316.217"/>
	</g>
</g>
<g id="TEXTS">
	<text transform="matrix(1 0 0 1 254.2056 301.8833)" style="fill:#D9A677; font-family:'Quicksand-Bold'; font-size:11px;">TAGLINE HERE</text>
	<g>
		<text transform="matrix(1 0 0 1 255.0415 249.563)" style="fill:#1B2D58; font-family:'Quicksand-Bold'; font-size:31.0492px;">KOREAN</text>
	</g>
	<g>
		<text transform="matrix(1 0 0 1 254.7305 279.4448)" style="fill:#1B2D58; font-family:'Quicksand-Bold'; font-size:31.0492px;">FOOD</text>
	</g>
</g>
</svg>
